<svg width="64" height="64" viewBox="0 0 64 64" fill="none" xmlns="http://www.w3.org/2000/svg">
<path d="M45.5906 11.766C45.2077 11.068 44.6484 11.0479 44.011 11.0251C43.9388 11.0225 43.8656 11.0199 43.7915 11.0162C43.7351 11.0131 43.6728 11.0143 43.6078 11.0156C43.3493 11.0205 43.0469 11.0263 42.8946 10.7677C42.718 10.4679 42.7348 9.88857 42.7486 9.4103C42.753 9.25917 42.757 9.11803 42.7546 8.99911C42.7298 7.88807 42.678 6.70786 42.3178 6.31332C42.0461 6.0173 41.2335 6.05831 40.484 6.09613C40.241 6.10839 40.0047 6.12032 39.7956 6.12032H23.8426C23.5214 6.12032 23.1847 6.08918 22.8539 6.05858C22.2092 5.99897 21.5869 5.94142 21.145 6.12032C20.5037 6.38122 20.4602 7.75223 20.4193 9.04323L20.4171 9.11269C20.3828 10.1785 20.1609 11.0008 19.4257 10.918C18.5705 10.8232 17.7196 10.7933 17.3329 11.7148C16.8763 12.805 16.9704 13.9462 17.1391 15.9904C17.1632 16.2824 17.1888 16.5928 17.2146 16.9241H45.8373C45.8536 16.6819 45.871 16.4429 45.8882 16.2077C46.0222 14.3686 46.139 12.7662 45.5906 11.766Z" fill="#8047F8"/>
<path fill-rule="evenodd" clip-rule="evenodd" d="M19.4436 18.9515C19.8907 26.1545 20.3328 33.3658 20.775 40.5771L20.7752 40.5816C21.0153 44.4971 21.2554 48.4127 21.4963 52.327H22.4095C22.4718 52.9397 22.543 53.6961 22.6181 54.4936C22.7705 56.1125 22.9388 57.901 23.0804 59H23.1814C24.1116 58.5948 30.5426 55.3222 30.5455 42.2932C30.5443 42.2561 30.5453 42.2189 30.5486 42.182H28.9598C28.8828 42.1812 28.8083 42.1506 28.7476 42.095C28.6868 42.0395 28.6433 41.9619 28.6237 41.8744C28.4689 41.4191 28.344 40.9504 28.2503 40.4725C27.3156 41.101 26.5734 42.0607 26.1293 43.2148C25.7079 42.0328 25.6527 40.714 25.9735 39.489C26.2943 38.264 26.9706 37.2106 27.8843 36.513C27.8961 32.7111 29.0918 29.0462 31.245 26.212L31.2786 26.1768C31.3412 26.1124 31.4213 26.0765 31.5044 26.0757C31.5525 26.0762 31.5999 26.0884 31.6438 26.1116C31.6881 26.1351 31.7278 26.1693 31.7603 26.212C33.9387 29.05 35.128 32.7502 35.091 36.5745C36.0218 37.2527 36.7119 38.3054 37.0333 39.537C37.3547 40.7687 37.2855 42.0957 36.8386 43.2719C36.397 42.1159 35.6541 41.1555 34.7176 40.5297C34.6604 40.9928 34.5551 41.4459 34.404 41.8788C34.3517 42.0634 34.2472 42.182 34.1426 42.182H32.4482C32.4509 42.2041 32.4528 42.2263 32.4539 42.2486L32.4545 42.2537V42.2645C32.4551 42.2837 32.4552 42.3029 32.4546 42.3221C32.4778 55.7251 39.3153 58.7674 39.8916 59H40.0887C40.1391 57.9444 40.3029 56.4877 40.4626 55.0675C40.5727 54.0889 40.6808 53.1276 40.7485 52.327H41.6723C41.968 47.3965 42.2721 42.4798 42.5763 37.563L42.5764 37.5604L42.5765 37.5589C42.9656 31.2698 43.3546 24.9806 43.726 18.662H19.5028C19.4331 18.6782 19.4378 18.814 19.4436 18.9515ZM31.5044 26.0757L31.5026 26.0757H31.5064L31.5044 26.0757Z" fill="#8047F8"/>
</svg>
